<?xml version="1.0" encoding="iso-8859-1"?>
<!-- Generator: Adobe Illustrator 22.0.1, SVG Export Plug-In . SVG Version: 6.00 Build 0)  -->
<svg version="1.1" id="Layer_1" xmlns="http://www.w3.org/2000/svg" xmlns:xlink="http://www.w3.org/1999/xlink" x="0px" y="0px"
	 viewBox="0 0 400 300" style="enable-background:new 0 0 400 300;" xml:space="preserve">
<g>
	<rect x="46" y="36" style="fill:#E6E6E6;" width="303" height="148"/>
</g>
<polygon style="fill:#E6E6E6;" points="46.5,183.563 5.5,263.438 393.5,263.438 349.5,183.563 "/>
<polygon style="fill:#F2F2F2;" points="163.299,217.563 154,230.223 242,230.223 232.021,217.563 "/>
<g>
	<rect x="59" y="53" style="fill:#C7B299;" width="277" height="113"/>
</g>
<line style="fill:none;stroke:#000000;stroke-width:0.5;stroke-miterlimit:10;" x1="47" y1="184" x2="304" y2="184"/>
<line style="fill:none;stroke:#2E3192;stroke-width:5;stroke-miterlimit:10;" x1="59" y1="71" x2="336" y2="71"/>
<line style="fill:none;stroke:#006837;stroke-width:5;stroke-miterlimit:10;" x1="59" y1="99.5" x2="336" y2="99.5"/>
<line style="fill:none;stroke:#ED1C24;stroke-width:5;stroke-miterlimit:10;" x1="59" y1="143.5" x2="336" y2="143.5"/>
<line style="fill:none;stroke:#ED1E79;stroke-width:5;stroke-miterlimit:10;" x1="59" y1="87.5" x2="336" y2="87.5"/>
<path style="fill:#B3B3B3;" d="M393.5,263.125L393.5,263.125c0,5.178-4.197,9.375-9.375,9.375H15.166
	c-5.178,0-9.375-4.197-9.375-9.375l0,0H393.5z"/>
</svg>
